<svg xmlns="http://www.w3.org/2000/svg" width="93" height="24" fill="none" viewBox="0 0 93 24"><path fill="#fff" d="M89.96 16.6c0 .64-.47 1.069-1.027 1.069v-.004c-.572.004-1.034-.426-1.034-1.066s.462-1.068 1.034-1.068c.557 0 1.026.428 1.026 1.068m.416 0c0-.88-.683-1.39-1.443-1.39-.766 0-1.448.51-1.448 1.39 0 .877.682 1.39 1.448 1.39.76 0 1.443-.513 1.443-1.39m-1.682.117h.154l.358.628h.393l-.396-.655c.205-.014.373-.112.373-.388 0-.343-.236-.453-.636-.453h-.58v1.496h.334zm0-.254v-.36h.231c.126 0 .298.01.298.164 0 .167-.089.196-.237.196zM80.66 8.946l1.798 4.922h-3.653zM78.732 7.03l-4.146 10.504h2.927l.656-1.856h4.906l.621 1.856h3.178L82.698 7.03zm-8.324 10.508h2.97V7.027h-2.97zM49.79 7.026l-2.477 8.331-2.374-8.33h-3.205l3.39 10.511h4.28L52.82 7.026zm12.006 2.29h1.277c1.852 0 3.05.83 3.05 2.988s-1.198 2.99-3.05 2.99h-1.277zm-2.945-2.29v10.512h4.816c2.565 0 3.403-.426 4.309-1.383.64-.672 1.053-2.146 1.053-3.757 0-1.478-.35-2.796-.96-3.617-1.1-1.468-2.686-1.755-5.05-1.755zm-28.135-.014v10.526h2.995V9.545l2.321.001c.769 0 1.316.191 1.686.587.47.5.661 1.307.661 2.783v4.622h2.903v-5.816c0-4.15-2.646-4.71-5.235-4.71zm23.355.014.001 10.512h2.969V7.026zM5.07 10.888s2.186-3.226 6.551-3.56v-1.17C6.786 6.547 2.6 10.642 2.6 10.642s2.371 6.855 9.021 7.483V16.88c-4.88-.614-6.55-5.993-6.55-5.993m6.551 3.519v1.139c-3.688-.658-4.712-4.492-4.712-4.492s1.771-1.962 4.712-2.28v1.25h-.005c-1.544-.186-2.75 1.256-2.75 1.256s.676 2.428 2.755 3.127m0-10.407v2.158q.213-.016.427-.025c5.497-.185 9.078 4.509 9.078 4.509s-4.113 5.002-8.399 5.002c-.393 0-.76-.037-1.106-.098v1.335c.296.037.602.06.921.06 3.988 0 6.872-2.037 9.665-4.448.463.37 2.358 1.273 2.748 1.668-2.655 2.223-8.843 4.015-12.351 4.015-.339 0-.663-.02-.983-.051V20H26.78V4zm0 4.774V7.33q.21-.015.427-.022c3.953-.124 6.546 3.396 6.546 3.396s-2.801 3.89-5.804 3.89a3.7 3.7 0 0 1-1.169-.186v-4.383c1.54.186 1.849.866 2.774 2.408l2.058-1.735s-1.502-1.97-4.034-1.97c-.276 0-.539.02-.798.047"/></svg>