<svg width="92" height="24" viewBox="0 0 92 24" fill="none" xmlns="http://www.w3.org/2000/svg">
<path d="M49.856 19.3144H61.6815V17.8424H51.8825V13.1291H59.2427V11.6394H51.8825V7.29805H61.6807V5.82993H49.856V19.3144Z" fill="white"/>
<path d="M56.0011 3.65033L54.4007 5.48324L59.4268 3.65033H56.0011Z" fill="white"/>
<path d="M79.6863 5.83034V19.3138H91.6412V17.842H81.5339V5.83034H79.6863Z" fill="white"/>
<path d="M69.3443 5.83034L62.6197 19.3145H64.8926L66.613 15.8244H74.6789L76.414 19.3145H78.6642L71.933 5.83034H69.3443ZM67.464 14.1345L70.6326 7.69387L73.8394 14.1345H67.464Z" fill="white"/>
<path d="M43.4386 13.6766C46.4687 12.8524 46.7627 10.5528 46.7478 9.73134C46.5672 7.32285 44.975 5.83059 42.1148 5.83059H33.7785V19.3141H35.6789V13.6569H41.1056L45.0976 19.3121H47.4935C47.4935 19.3121 44.6214 15.5057 43.4386 13.6746V13.6766ZM41.855 12.0625H35.6789V7.42656H42.0707C43.5409 7.42656 44.3694 8.12665 44.6674 9.01628C44.7562 9.34305 44.7794 9.68474 44.7355 10.0209C44.6917 10.357 44.5817 10.6806 44.4123 10.9724C43.8779 11.8736 42.8635 12.0645 41.855 12.0645" fill="white"/>
<path d="M22.2944 18.7778C18.583 18.7778 15.5257 15.7379 15.5257 12.075C15.5257 8.41655 18.4385 5.23086 22.4382 5.23086C23.3243 5.22339 24.2032 5.39492 25.0241 5.73554C25.8449 6.07615 26.5914 6.57912 27.2206 7.21541C27.8497 7.8517 28.3491 8.60873 28.6898 9.44279C29.0306 10.2769 29.2059 11.1715 29.2058 12.075C29.2058 15.7375 26.0048 18.7778 22.2944 18.7778ZM22.3586 3.54749C16.9948 3.54749 13.3383 7.40353 13.3383 12.0703C13.3383 16.9836 17.3776 20.4525 22.3586 20.4525C27.3396 20.4525 31.3743 17.0337 31.3743 12.0703C31.3743 7.40353 27.6733 3.54749 22.3586 3.54749Z" fill="white"/>
<path d="M8.55293 10.6004H9.92367L12.4127 5.83059H10.41L8.55293 10.6004Z" fill="white"/>
<path d="M0 5.83034V19.3138H11.9538V17.842H1.84931V5.83034H0Z" fill="white"/>
</svg>
