<svg xmlns="http://www.w3.org/2000/svg" width="79" height="24" fill="none" viewBox="0 0 79 24"><g clip-path="url(#a)"><path fill="#fff" fill-rule="evenodd" d="M17.917 20.387 8.958 4.807 0 20.387zm9.036-.71 7.486-14.161h-3.238L26.037 15.8 20.872 5.516h-3.238l7.486 14.162zm51.02-14.161v14.162h-2.68V5.516zm-14.922 8.876q0-1.656.69-2.912a4.8 4.8 0 0 1 1.928-1.935q1.235-.678 2.89-.678 1.466 0 2.64.638 1.171.638 1.863 1.895.69 1.257.712 3.072v.618h-7.896q.084 1.317.775 2.075.712.738 1.906.738.755 0 1.382-.4.629-.398.943-1.076l2.744.199q-.504 1.495-1.885 2.394-1.383.897-3.184.897-1.655 0-2.89-.678a4.8 4.8 0 0 1-1.927-1.935q-.69-1.257-.691-2.912m7.959-.997q-.147-1.297-.817-1.895-.67-.62-1.634-.619-1.11 0-1.801.659-.691.658-.859 1.855zM58.527 11.5q.67.538.838 1.496l2.764-.14q-.146-1.217-.858-2.114a4.6 4.6 0 0 0-1.843-1.377q-1.11-.498-2.45-.498-1.655 0-2.891.678a4.8 4.8 0 0 0-1.927 1.935q-.69 1.256-.691 2.912 0 1.655.691 2.912a4.8 4.8 0 0 0 1.927 1.935q1.236.678 2.89.678 1.383 0 2.513-.498a4.76 4.76 0 0 0 1.844-1.457q.712-.937.858-2.194l-2.785-.12q-.147 1.057-.817 1.636-.67.56-1.613.559-1.298 0-2.01-.898t-.712-2.553.711-2.553q.713-.898 2.011-.898.9 0 1.55.559m-13.6-2.395h2.496l.072 2.035q.265-.864.738-1.342.686-.693 1.913-.693h1.018v2.178h-1.039q-.873 0-1.435.238-.54.237-.831.752-.27.515-.27 1.307v6.098h-2.661zM33.42 11.48q-.69 1.256-.69 2.912t.69 2.912a4.8 4.8 0 0 0 1.927 1.935q1.236.678 2.89.678 1.801 0 3.184-.897 1.383-.899 1.885-2.394l-2.744-.2q-.313.68-.942 1.078-.63.399-1.383.399-1.192 0-1.906-.738-.69-.759-.774-2.075h7.896v-.618q-.022-1.815-.713-3.072-.69-1.257-1.863-1.895t-2.64-.638q-1.654 0-2.89.678a4.8 4.8 0 0 0-1.927 1.935m6.451.02q.671.598.817 1.895h-5.11q.166-1.198.858-1.855.691-.66 1.801-.659.964 0 1.634.619" clip-rule="evenodd"/></g><defs><clipPath id="a"><path fill="#fff" d="M0 4.8h78.498v15.6H0z"/></clipPath></defs></svg>