<svg width="47" height="24" viewBox="0 0 47 24" fill="none" xmlns="http://www.w3.org/2000/svg">
<path d="M42.053 17.6593C41.413 17.6593 40.8382 17.5355 40.3289 17.2881C39.8324 17.0406 39.4341 16.7084 39.1336 16.2916C38.8463 15.8617 38.7026 15.3667 38.7026 14.8066C38.7026 14.0772 38.9378 13.4845 39.4079 13.0285C39.8782 12.5726 40.5509 12.2601 41.426 12.0907L43.7184 11.6217C44.1756 11.5306 44.4892 11.3873 44.6589 11.1919C44.8287 10.9965 44.9136 10.71 44.9136 10.3322L45.1488 12.6182L41.8571 13.3217C41.413 13.4128 41.0669 13.5756 40.8187 13.8101C40.5836 14.0446 40.466 14.3702 40.466 14.787C40.466 15.217 40.6292 15.5621 40.9559 15.8227C41.2954 16.0832 41.7526 16.2135 42.3273 16.2135C42.7976 16.2135 43.2286 16.1092 43.6204 15.9008C44.0254 15.6924 44.3389 15.4057 44.561 15.0411C44.796 14.6634 44.9136 14.2335 44.9136 13.7515V10.3322C44.9136 9.86321 44.7438 9.49858 44.4042 9.23798C44.0777 8.96448 43.627 8.82767 43.0523 8.82767C42.3208 8.82767 41.7591 9.01004 41.3673 9.37479C40.9754 9.73953 40.7469 10.254 40.6815 10.9184L38.9573 10.6839C39.0226 9.99351 39.2316 9.40082 39.5843 8.9059C39.9369 8.39783 40.4072 8.00705 40.995 7.73355C41.5828 7.45993 42.2816 7.32324 43.0914 7.32324C44.2409 7.32324 45.1226 7.61627 45.7365 8.20244C46.3504 8.78861 46.6574 9.54414 46.6574 10.4689V17.3662H44.9528V16.0962C44.783 16.526 44.4369 16.8973 43.9144 17.2099C43.4049 17.5095 42.7845 17.6593 42.053 17.6593Z" fill="white"/>
<path d="M24.8079 17.3662V7.61627H26.5124V8.71051C26.643 8.33274 26.9304 8.00705 27.3746 7.73355C27.8186 7.45993 28.3345 7.32324 28.9223 7.32324C29.4971 7.32324 30.0261 7.44692 30.5094 7.69438C30.9927 7.94196 31.3062 8.31321 31.4499 8.80814C31.6197 8.35227 31.9332 7.99403 32.3903 7.73355C32.8606 7.45993 33.3831 7.32324 33.9578 7.32324C34.9505 7.32324 35.7081 7.60976 36.2306 8.18291C36.7531 8.75607 37.0143 9.58971 37.0143 10.6839V17.3662H35.2705V10.9184C35.2705 10.267 35.1268 9.77859 34.8395 9.4529C34.5652 9.1143 34.1602 8.94495 33.6247 8.94495C33.0369 8.94495 32.5798 9.15336 32.2532 9.57018C31.9397 9.97398 31.783 10.5667 31.783 11.3482V17.3662H30.0391V10.9184C30.0391 10.267 29.8955 9.77859 29.6081 9.4529C29.3338 9.1143 28.9289 8.94495 28.3934 8.94495C27.8056 8.94495 27.3484 9.15336 27.0218 9.57018C26.7083 9.97398 26.5516 10.5667 26.5516 11.3482V17.3662H24.8079Z" fill="white"/>
<path d="M18.1386 20.8832C16.9238 20.8832 15.9376 20.6032 15.1799 20.0431C14.4223 19.4829 13.9391 18.7014 13.7302 17.6984L15.4347 17.3271C15.5784 17.9654 15.8854 18.4604 16.3555 18.8121C16.8258 19.1769 17.4201 19.3592 18.1386 19.3592C19.0006 19.3592 19.6472 19.1377 20.0782 18.6949C20.5223 18.265 20.7445 17.6203 20.7445 16.7605V15.217C20.5485 15.6989 20.1827 16.0897 19.6472 16.3892C19.1247 16.6889 18.5369 16.8387 17.8838 16.8387C17.0217 16.8387 16.2642 16.6433 15.6111 16.2525C14.9579 15.8487 14.4485 15.2886 14.0828 14.5721C13.717 13.8558 13.5342 13.0285 13.5342 12.0907C13.5342 11.1398 13.717 10.3062 14.0828 9.58971C14.4485 8.87323 14.9514 8.31972 15.5914 7.92894C16.2445 7.52514 17.0087 7.32324 17.8838 7.32324C18.5369 7.32324 19.1312 7.47295 19.6669 7.77261C20.2154 8.05912 20.5877 8.41736 20.7836 8.8472V7.61627H22.4882V16.7605C22.4882 17.6203 22.3184 18.3561 21.9788 18.9685C21.6391 19.5937 21.1428 20.0691 20.4897 20.3948C19.8497 20.7204 19.0659 20.8832 18.1386 20.8832ZM18.0993 15.2951C18.9354 15.2951 19.6015 15.0019 20.0978 14.4158C20.6073 13.8296 20.862 13.0547 20.862 12.0907C20.862 11.1138 20.6073 10.3322 20.0978 9.74604C19.5884 9.15987 18.9222 8.86672 18.0993 8.86672C17.2633 8.86672 16.5907 9.15987 16.0812 9.74604C15.5849 10.3322 15.3367 11.1138 15.3367 12.0907C15.3367 13.0547 15.5914 13.8296 16.1009 14.4158C16.6103 15.0019 17.2765 15.2951 18.0993 15.2951Z" fill="white"/>
<path d="M10.0205 17.3635V7.62502H11.7644V17.3749L10.0205 17.3635ZM10.001 6.37456V3.60004H11.7839V6.37456H10.001Z" fill="white"/>
<path d="M0 17.3749V3.60001H1.84174V17.3749H0ZM0.372297 11.5523V9.89145H7.87642V11.5523H0.372297ZM0.372297 5.2803V3.60001H8.60138V5.2803H0.372297Z" fill="white"/>
</svg>
