<svg xmlns="http://www.w3.org/2000/svg" width="89" height="24" fill="none" viewBox="0 0 89 24"><g clip-path="url(#a)"><path fill="#fff" fill-rule="evenodd" d="m9.723 9.728-.15.074Q8.954 9.037 8.398 8.5q-.556-.54-1.083-.795-.256-.12-.925-.202a13 13 0 0 0-1.903-.075l-.715.03a6 6 0 0 1-.233.008q-.015.09-.038.18-.022.09-.037.21t-.03.306-.03.458q-.015.524-.023 1.146-.008.623-.008 1.176v1.424h.271q.24 0 .534-.015t.61-.037.526-.068q.542-.12.857-.314.317-.195.497-.465t.256-.592q.075-.322.135-.697h.18v4.826h-.18a7 7 0 0 0-.346-1.012q-.225-.532-.542-.817a2 2 0 0 0-.609-.382 2.6 2.6 0 0 0-.76-.157q-.225-.015-.39-.023a7 7 0 0 0-.317-.007h-.722v1.858q0 .42.008.772.007.352.007.607.015.48.053.907t.173.637.459.322.94.142V18H.2v-.15q.375-.06.7-.195a1.4 1.4 0 0 0 .534-.374q.075-.09.12-.263a4.5 4.5 0 0 0 .136-.869q.015-.247.015-.487 0-.21.007-.57l.015-.786q.008-.427.008-.877V9.638q0-.27-.008-.555a9 9 0 0 0-.03-.54 3 3 0 0 0-.075-.456.64.64 0 0 0-.143-.293q-.226-.24-.481-.307a6 6 0 0 0-.662-.127v-.15H8.7zM26.16 18v-.15q.045 0 .219-.03.172-.03.36-.105.189-.075.332-.21a.45.45 0 0 0 .142-.344q0-.136-.082-.442a13 13 0 0 0-.233-.75 54 54 0 0 0-.768-2.105h-4q-.225.57-.437 1.086l-.42 1.042q-.317.81-.317 1.139 0 .195.12.322.12.128.31.21.187.082.405.12t.414.067V18H19v-.165q.39-.045.67-.21.277-.165.322-.224.105-.105.347-.495.24-.39.586-1.154.316-.705.707-1.604l.805-1.85q.415-.952.82-1.919.405-.966.767-1.805l-.15-.33q.27-.12.489-.285t.383-.345.279-.344.173-.27h.12q.466 1.245.888 2.36.42 1.118.804 2.15l.745 2.002q.36.965.722 1.91.165.465.308.772l.324.697a2 2 0 0 0 .414.517q.173.157.428.277.256.12.602.135V18zm-1.97-9.082q-.09.195-.264.615-.173.42-.428 1.019a91 91 0 0 0-.564 1.356l-.67 1.641h3.746a150 150 0 0 0-1.03-2.645q-.248-.622-.452-1.139a61 61 0 0 0-.338-.847M45.35 18h-4.558v-.15q.376-.06.7-.195t.548-.39a.6.6 0 0 0 .113-.254q.038-.165.06-.39.024-.225.03-.472.008-.247.008-.487 0-.21.008-.57l.015-.786q.007-.427.007-.877V9.1q0-.27-.022-.503a3 3 0 0 0-.068-.42.7.7 0 0 0-.136-.292 1.2 1.2 0 0 0-.518-.367 3 3 0 0 0-.7-.157v-.15h4.498v.15a4 4 0 0 0-.677.165.97.97 0 0 0-.557.48q-.135.254-.142.643-.008.39-.023.735 0 .375-.008.742-.007.367-.007.742v5.02q0 .435.015.84t.135.569q.18.255.572.39.39.134.707.164zm22.771 0h-3.084a5 5 0 0 1-.195-.202l-.136-.158a3 3 0 0 1-.188-.262 23 23 0 0 0-.353-.517 38 38 0 0 1-.504-.757 31 31 0 0 0-.444-.667q-.225-.33-.49-.667a21 21 0 0 0-.623-.756 6 6 0 0 0-.655-.645 1.6 1.6 0 0 0-.745-.374q-.285-.06-.436-.06-.135 0-.346-.015v1.693a41 41 0 0 0 .045 2.038q.016.345.166.57.12.195.466.397t.963.232V18h-4.814v-.15q.375-.06.722-.18.345-.12.542-.36.075-.09.12-.27.045-.179.068-.404.022-.225.037-.48.015-.254.015-.494 0-.21.008-.57l.015-.786q.007-.427.007-.877V9.638q0-.27-.007-.547a8 8 0 0 0-.03-.525 3 3 0 0 0-.075-.45.64.64 0 0 0-.143-.292 1.13 1.13 0 0 0-.504-.322 5 5 0 0 0-.685-.142v-.15h.617q.511 0 1.158-.008.648-.007 1.294-.007h1.053q1.008 0 1.79.06.783.06 1.43.404.66.345 1.068.937.406.592.406 1.491 0 .555-.203.997a2.7 2.7 0 0 1-.542.78 3.3 3.3 0 0 1-.79.576q-.45.24-.947.405v.045q.255.135.496.39.24.255.466.569a244 244 0 0 0 1.67 2.398q.556.78 1.083 1.139.528.36 1.234.464zm-4.197-8.003q0-.75-.376-1.334t-1.098-.929q-.361-.165-.76-.24a4.5 4.5 0 0 0-.835-.074q-.315 0-.512.015-.195.015-.3.03-.015.09-.03.157t-.023.172-.015.293l-.023.532q-.015.525-.022 1.183-.008.66-.008 1.274v1.649q.617 0 1.151-.053.535-.052 1.03-.217.482-.15.828-.405t.564-.577.323-.696.106-.78m24.275 5.14L87.448 18h-9.207v-.15q.376-.06.7-.195a1.4 1.4 0 0 0 .534-.374q.075-.09.12-.263a4.6 4.6 0 0 0 .136-.869q.015-.247.015-.487 0-.21.007-.57l.015-.786q.008-.427.008-.877V9.638q0-.27-.008-.555a9 9 0 0 0-.03-.54 3 3 0 0 0-.075-.456.64.64 0 0 0-.143-.293q-.225-.24-.481-.307a6 6 0 0 0-.662-.127v-.15h8.304l1.023 2.473-.15.074q-1.22-1.513-2.287-2.038-.256-.12-.948-.21a13.4 13.4 0 0 0-2.34-.067 4 4 0 0 0-.488.053q-.03.24-.053.989-.023.75-.023 1.738v.96q0 .389.008.636t.008.382v.165h.3q.225 0 .52-.015.292-.015.586-.037a3.4 3.4 0 0 0 .49-.068q.45-.105.751-.284.3-.18.49-.435.187-.255.3-.592t.203-.757h.18v4.72h-.18q-.12-.479-.368-.988-.249-.51-.52-.765a2 2 0 0 0-.579-.344 2.6 2.6 0 0 0-.79-.165q-.225-.015-.375-.023-.15-.007-.301-.007h-.692q-.03.21-.03.614v1.799q0 .24.007.457.008.217.008.367.015.48.052.907.038.427.173.637t.647.3 1.113.09q.256 0 .655-.016.399-.015.835-.075.48-.06.887-.232t.782-.487q.376-.315.73-.772t.73-1.101z" clip-rule="evenodd"/></g><defs><clipPath id="a"><path fill="#fff" d="M.2 7h88v11H.2z"/></clipPath></defs></svg>