<svg width="67" height="12" viewBox="0 0 67 12" fill="none" xmlns="http://www.w3.org/2000/svg">
<path d="M15.9561 0C19.2116 0 21.8516 2.63928 21.8516 5.89453C21.8514 9.14963 19.2115 11.7871 15.9561 11.7871C12.7006 11.7871 10.0627 9.14961 10.0625 5.89453C10.0625 2.63931 12.7005 4.18866e-05 15.9561 0ZM39.2207 0C42.4754 0.000253733 45.1162 2.63944 45.1162 5.89453C45.116 9.14948 42.4769 11.7869 39.2207 11.7871C35.9643 11.7871 33.3234 9.14963 33.3232 5.89453C33.3232 2.63928 35.9642 0 39.2207 0ZM9.54297 0.381836V2.52246H6.02344V11.542H3.53516V2.52246H0V0.381836H9.54297ZM54.9922 0.381836V2.52246H51.4736V11.542H48.9844V2.52246H45.4502V0.381836H54.9922ZM62.2129 0.381836L66.7676 11.542H63.9443L62.9062 8.81836H58.2588L57.2217 11.542H54.3975L58.9531 0.381836H62.2129ZM24.748 0.381836L27.6396 4.89746L30.5283 0.381836H33.3535L28.8818 7.38086V11.541H26.3945V7.37988L21.9229 0.381836H24.748ZM15.9561 2.18652C14.1195 2.18657 12.6299 3.84698 12.6299 5.89453C12.6299 7.94208 14.1195 9.60152 15.9561 9.60156C17.7949 9.60156 19.2852 7.94244 19.2852 5.89453C19.2852 3.84663 17.7926 2.18652 15.9561 2.18652ZM39.2207 2.18652C37.3809 2.18652 35.8916 3.84695 35.8916 5.89453C35.8916 7.94211 37.3812 9.60156 39.2207 9.60156C41.057 9.60128 42.5479 7.94226 42.5479 5.89453C42.5479 3.8468 41.0603 2.18681 39.2207 2.18652ZM59.0137 6.83496H62.1514L60.584 2.71973L59.0137 6.83496Z" fill="white"/>
</svg>
