<svg xmlns="http://www.w3.org/2000/svg" width="107" height="24" fill="none" viewBox="0 0 107 24"><path fill="#fff" d="M13.347 4q-.299.535-.544 1.1a15.9 15.9 0 0 0-4.698 0q-.241-.565-.544-1.1c-1.46.25-2.884.687-4.235 1.305C.65 9.27-.074 13.133.286 16.942a17 17 0 0 0 5.193 2.606c.421-.564.793-1.166 1.113-1.792a11 11 0 0 1-1.752-.834q.221-.162.43-.324a12.2 12.2 0 0 0 10.38 0q.21.174.43.324-.84.495-1.755.838c.319.626.691 1.228 1.113 1.792a17 17 0 0 0 5.192-2.602c.425-4.419-.728-8.249-3.048-11.64a16.8 16.8 0 0 0-4.231-1.302zM7.05 14.597c-1.01 0-1.85-.916-1.85-2.05s.806-2.054 1.846-2.054c1.039 0 1.865.925 1.85 2.054-.017 1.13-.815 2.05-1.846 2.05m6.817 0c-1.015 0-1.846-.916-1.846-2.05s.806-2.054 1.845-2.054c1.04 0 1.862.925 1.846 2.054-.017 1.13-.814 2.05-1.845 2.05M40.472 6.84q-1.528-.688-3.736-.688H30.63v10.962h5.667q2.394 0 4.014-.737a5.35 5.35 0 0 0 2.414-1.996 5.2 5.2 0 0 0 .79-2.815 5.24 5.24 0 0 0-.761-2.811 5 5 0 0 0-2.283-1.92zm-1.948 6.743q-.797.743-2.287.744h-1.69V8.943h1.91c.958 0 1.678.241 2.157.712a2.57 2.57 0 0 1 .712 1.902 2.66 2.66 0 0 1-.798 2.03zm20.774-1.212q.746.67.752 1.964a2.6 2.6 0 0 1-1.248 2.263q-1.234.83-3.53.827c-.88 0-1.756-.11-2.607-.328a8.3 8.3 0 0 1-2.287-.953v-2.598c.621.45 1.317.781 2.058.978.81.245 1.653.376 2.5.38.29.017.584-.037.855-.147.192-.098.286-.225.286-.352a.54.54 0 0 0-.155-.393 1.4 1.4 0 0 0-.61-.266l-1.878-.421q-1.615-.376-2.291-1.04a2.32 2.32 0 0 1-.672-1.747 2.32 2.32 0 0 1 .594-1.579 3.8 3.8 0 0 1 1.69-1.04 8 8 0 0 1 2.57-.367 9.5 9.5 0 0 1 2.41.282 6.8 6.8 0 0 1 1.816.72v2.46a6.7 6.7 0 0 0-1.698-.696 7.7 7.7 0 0 0-1.98-.262q-1.473 0-1.473.499c0 .151.086.29.225.352q.405.172.834.241l1.567.282c1.015.18 1.776.491 2.275.941zM69.69 14.18c.458-.13.896-.32 1.305-.556v2.774a7.64 7.64 0 0 1-3.993 1.035 7.4 7.4 0 0 1-3.257-.663 4.7 4.7 0 0 1-2.03-1.788 4.8 4.8 0 0 1-.67-2.537 4.64 4.64 0 0 1 .703-2.52 4.74 4.74 0 0 1 2.066-1.743 7.7 7.7 0 0 1 3.258-.635q2.347 0 3.899.987v2.868a4.8 4.8 0 0 0-1.277-.61 5.1 5.1 0 0 0-1.567-.233q-1.455-.001-2.28.532a1.602 1.602 0 0 0-.024 2.782q.8.54 2.317.54a5.3 5.3 0 0 0 1.542-.225zm11.592-6.002a8.54 8.54 0 0 0-6.42 0 4.8 4.8 0 0 0-2.058 1.73 4.53 4.53 0 0 0-.712 2.517 4.7 4.7 0 0 0 .712 2.553 4.85 4.85 0 0 0 2.07 1.788 8.15 8.15 0 0 0 6.404-.004 4.8 4.8 0 0 0 2.058-1.788 4.77 4.77 0 0 0 .704-2.553 4.57 4.57 0 0 0-.704-2.52 4.75 4.75 0 0 0-2.05-1.723zm-1.653 5.81a2.1 2.1 0 0 1-1.568.569 2.15 2.15 0 0 1-1.566-.57 2.03 2.03 0 0 1-.57-1.513 2 2 0 0 1 .57-1.494 2.16 2.16 0 0 1 1.566-.556 2.14 2.14 0 0 1 1.568.556c.393.397.602.937.573 1.494.024.56-.18 1.109-.573 1.514m12.393-6.244a2.6 2.6 0 0 1 1.424.376v3.388a2.8 2.8 0 0 0-1.55-.393q-1.253 0-1.927.761-.67.761-.671 2.357v2.88h-3.839v-9.16h3.756v2.909q.313-1.596 1.011-2.357a2.32 2.32 0 0 1 1.788-.761zm10.336-1.907v4.084q-.94-2.382-3.678-2.382a4.45 4.45 0 0 0-2.374.643 4.33 4.33 0 0 0-1.612 1.788 5.5 5.5 0 0 0-.552 2.582 5.7 5.7 0 0 0 .523 2.5 4.17 4.17 0 0 0 1.506 1.739c.68.43 1.47.65 2.271.634a4.6 4.6 0 0 0 2.439-.61 3.65 3.65 0 0 0 1.481-1.763v2.058h3.838V5.837zm-.565 8.098a2.13 2.13 0 0 1-1.567.56 2.1 2.1 0 0 1-1.534-.56 1.93 1.93 0 0 1-.585-1.461 1.9 1.9 0 0 1 .58-1.449 2.46 2.46 0 0 1 3.106 0c.393.369.606.888.59 1.428a1.98 1.98 0 0 1-.59 1.482m-53.13-6.723c0 .95-.855 1.718-1.91 1.718-1.056 0-1.911-.769-1.911-1.718 0-.95.855-1.719 1.91-1.719 1.056 0 1.911.77 1.911 1.719m0 2.9v7.05h-3.826v-7.05a4.92 4.92 0 0 0 3.826 0"/></svg>