<svg width="51" height="24" viewBox="0 0 51 24" fill="none" xmlns="http://www.w3.org/2000/svg">
<mask id="mask0_5798_3154" style="mask-type:luminance" maskUnits="userSpaceOnUse" x="0" y="2" width="50" height="20">
<path d="M0 2.13867H49.6V21.8607H0V2.13867Z" fill="white"/>
</mask>
<g mask="url(#mask0_5798_3154)">
<path fill-rule="evenodd" clip-rule="evenodd" d="M4.05 13.2495C2.716 13.2495 1.17 13.8875 0.33 14.5495L1.098 16.1545C1.771 15.5405 2.858 15.0215 3.838 15.0215C4.771 15.0215 5.278 15.3285 5.278 15.9545C5.278 16.3795 4.936 16.5915 4.298 16.6745C1.89 16.9815 0 17.6425 0 19.4965C0 20.9615 1.051 21.8585 2.68 21.8585C3.85 21.8585 4.89 21.2085 5.385 20.3585V21.6225H7.558V16.3205C7.558 14.1355 6.035 13.2505 4.051 13.2505M3.237 20.1595C2.623 20.1595 2.316 19.8645 2.316 19.3685C2.316 18.4475 3.343 18.1395 5.221 17.9385C5.233 19.1675 4.394 20.1585 3.237 20.1585M28.049 14.8555V13.4855H25.876V21.6225H28.2V17.7025C28.2 15.8365 29.322 15.2925 30.113 15.2925C30.42 15.2925 30.833 15.3875 31.105 15.5885L31.53 13.4385C31.176 13.2855 30.798 13.2495 30.491 13.2495C29.298 13.2495 28.543 13.7815 28.047 14.8555M42.324 13.2495C41.096 13.2495 40.175 13.9815 39.691 14.6795C39.242 13.7695 38.309 13.2495 37.175 13.2495C35.947 13.2495 35.097 13.9345 34.695 14.7145V13.4855H32.452V21.6225H34.778V17.4305C34.778 15.9305 35.569 15.2105 36.301 15.2105C36.963 15.2105 37.577 15.6355 37.577 16.7455V21.6225H39.915V17.4305C39.915 15.9065 40.683 15.2105 41.45 15.2105C42.064 15.2105 42.714 15.6585 42.714 16.7335V21.6235H45.04V16.0015C45.04 14.1715 43.812 13.2495 42.324 13.2495ZM15.776 12.8835V13.4855H12.246V12.6595C12.246 11.5845 12.86 11.2775 13.391 11.2775C13.698 11.2775 14.1 11.3475 14.431 11.5375L15.151 9.89547C14.726 9.64747 14.029 9.42347 13.096 9.42347C11.608 9.42347 9.919 10.2615 9.919 12.8955V13.4975H8.574V15.2925H9.92V21.6225H12.246V15.2805H15.777V21.6225H18.104V15.2805H20.218V13.4855H18.104V12.6595C18.104 11.5845 18.718 11.2775 19.25 11.2775C19.84 11.2775 20.289 11.5375 20.289 11.5375L21.009 9.89547C21.009 9.89547 20.277 9.42347 18.954 9.42347C17.478 9.41147 15.777 10.2505 15.777 12.8835M21.6 13.4855H23.926V21.6225H21.6V13.4855Z" fill="white"/>
<path fill-rule="evenodd" clip-rule="evenodd" d="M35.157 2.1387C28.874 2.1387 23.277 6.4967 21.694 12.1057H23.974C25.296 7.9257 29.795 4.2647 35.157 4.2647C41.676 4.2647 47.297 9.2247 47.297 16.9477C47.297 18.6837 47.073 20.2427 46.647 21.6247H48.856L48.88 21.5537C49.246 20.1237 49.423 18.5777 49.423 16.9477C49.423 8.3377 43.152 2.1377 35.157 2.1377" fill="white"/>
</g>
</svg>
