<svg xmlns="http://www.w3.org/2000/svg" width="94" height="24" fill="none" viewBox="0 0 94 24"><g clip-path="url(#a)"><mask id="b" width="93" height="18" x="0" y="3" maskUnits="userSpaceOnUse" style="mask-type:luminance"><path fill="#fff" d="M92.8 3H.8v17.63h92z"/></mask><g fill="#fff" mask="url(#b)"><path fill-rule="evenodd" d="M18.486 11.794c0-4.857-3.94-8.794-8.8-8.794s-8.8 3.937-8.8 8.794 3.94 8.795 8.8 8.795 8.8-3.937 8.8-8.795M8.085 6.91c-.07.135-.07.313-.07.668v2.014c0 .088 0 .133.012.174q.015.054.048.101c.025.035.06.063.128.119l.51.413c.083.068.124.101.14.142a.16.16 0 0 1 0 .11c-.016.041-.057.075-.14.142l-.51.414a.7.7 0 0 0-.128.119.3.3 0 0 0-.048.1c-.012.042-.012.086-.012.175v4.411c0 .356 0 .533.07.669.06.12.158.216.277.277.136.07.313.07.669.07h1.31c.356 0 .534 0 .67-.07a.64.64 0 0 0 .277-.277c.069-.136.069-.313.069-.669v-2.013c0-.089 0-.133-.011-.174a.3.3 0 0 0-.049-.101c-.024-.035-.059-.063-.128-.119l-.51-.414c-.082-.067-.124-.1-.139-.141a.16.16 0 0 1 0-.11c.015-.041.057-.075.14-.143l.51-.413c.068-.056.103-.084.127-.119a.3.3 0 0 0 .049-.101c.011-.041.011-.085.011-.174V7.577c0-.355 0-.533-.07-.668a.64.64 0 0 0-.277-.278c-.135-.069-.313-.069-.669-.069h-1.31c-.356 0-.533 0-.67.07a.64.64 0 0 0-.276.277" clip-rule="evenodd"/><path d="M25.55 17.055c.087 0 .158-.07.158-.157V6.568a.16.16 0 0 0-.158-.159h-1.523a.17.17 0 0 0-.14.078c-.349.53-.998.798-1.888.826a.16.16 0 0 0-.158.16v1.545c0 .087.07.158.158.158h1.23c.088 0 .159.07.159.158v7.564c0 .087.07.157.157.157zm6.081-8.51c.822 0 1.483.437 1.483 1.537 0 1.068-.661 1.537-1.483 1.537h-1.788V8.545zm0 5.064c2.417 0 3.819-1.472 3.819-3.592 0-2.006-1.402-3.478-3.819-3.478h-3.935a.16.16 0 0 0-.157.158v10.2c0 .088.07.158.157.158h1.989c.087 0 .158-.07.158-.157v-3.131c0-.087.07-.158.157-.158zm7.392 1.958c-.676 0-1.095-.308-1.095-.858 0-.485.29-.809.983-.809h1.885v.162c0 .939-.806 1.505-1.773 1.505m1.95 1.33c0 .088.07.158.158.158h1.73c.088 0 .158-.07.158-.157V12.33c0-2.2-1.24-3.478-3.48-3.478-1.663 0-2.936.888-3.458 2.315a.153.153 0 0 0 .11.2l1.743.428a.164.164 0 0 0 .19-.1c.264-.648.705-1.031 1.415-1.031.741 0 1.257.485 1.257 1.359v.113c0 .243-.08.34-.37.34H38.41c-1.676 0-2.69.89-2.69 2.297 0 1.505 1.16 2.476 2.77 2.476.811 0 1.59-.267 2.14-.86.107-.117.342-.046.342.113zm6.333-1.265c-.783 0-1.355-.325-1.637-.923a.17.17 0 0 0-.191-.095l-1.63.413a.15.15 0 0 0-.11.189c.412 1.37 1.792 2.034 3.488 2.034 2.175 0 3.416-1.117 3.416-2.638 0-2.944-4.657-1.941-4.657-3.397 0-.486.403-.793 1.128-.793.721 0 1.205.394 1.436 1a.17.17 0 0 0 .185.106l1.663-.315a.152.152 0 0 0 .12-.191c-.381-1.289-1.453-2.17-3.388-2.17-2.127 0-3.255 1.133-3.255 2.557 0 3.041 4.673 2.135 4.673 3.397 0 .502-.419.826-1.24.826m7.238 0c-.783 0-1.355-.325-1.637-.923a.17.17 0 0 0-.191-.095l-1.63.413a.15.15 0 0 0-.11.189c.412 1.37 1.792 2.034 3.487 2.034 2.176 0 3.416-1.117 3.416-2.638 0-2.944-4.656-1.941-4.656-3.397 0-.486.403-.793 1.128-.793.721 0 1.204.394 1.436 1a.17.17 0 0 0 .185.106l1.663-.315a.152.152 0 0 0 .12-.191c-.381-1.289-1.454-2.17-3.388-2.17-2.127 0-3.255 1.133-3.255 2.557 0 3.041 4.673 2.135 4.673 3.397 0 .502-.42.826-1.241.826m5.372 1.303a.16.16 0 0 0 .154.12h2.506c.073 0 .137-.05.154-.121l1.276-5.428 1.277 5.428c.016.07.08.121.153.121h2.587a.16.16 0 0 0 .154-.12l1.888-7.693a.158.158 0 0 0-.154-.195h-1.78a.16.16 0 0 0-.155.125l-1.263 6.103-1.565-6.11a.16.16 0 0 0-.153-.118h-1.992a.16.16 0 0 0-.154.12l-1.453 6.108-1.247-6.102a.16.16 0 0 0-.155-.126h-1.797a.158.158 0 0 0-.153.195zm14.406.315c2.416 0 4.076-1.877 4.076-4.19 0-2.33-1.66-4.207-4.076-4.207-2.401 0-4.077 1.876-4.077 4.206 0 2.314 1.676 4.19 4.077 4.19m0-1.926c-1 0-1.773-.841-1.773-2.265s.773-2.281 1.773-2.281 1.788.857 1.788 2.281-.79 2.265-1.788 2.265m7.254-2.507c0-1.375.693-1.698 1.756-1.698.204 0 .428.02.64.06.09.017.18-.04.195-.13l.338-1.905a.145.145 0 0 0-.083-.162 1.8 1.8 0 0 0-.72-.128c-1.079 0-1.917.63-2.32 1.909V9.204a.16.16 0 0 0-.157-.157h-1.747a.16.16 0 0 0-.158.157v7.694c0 .087.07.157.158.157h1.94c.087 0 .158-.07.158-.157zm7.098 2.557c-1.16 0-1.773-.955-1.773-2.314s.612-2.33 1.773-2.33c1.16 0 1.772.971 1.772 2.33 0 1.36-.612 2.314-1.772 2.314m1.9 1.525c0 .087.072.157.159.157h1.81c.088 0 .159-.07.159-.157V6.72a.16.16 0 0 0-.158-.158h-1.876a.16.16 0 0 0-.157.158v3.443c-.5-.938-1.338-1.31-2.401-1.31-2.079 0-3.497 1.812-3.497 4.206s1.418 4.19 3.497 4.19c1.128 0 1.998-.453 2.465-1.617z"/></g></g><defs><clipPath id="a"><path fill="#fff" d="M.8 3h92v17.63H.8z"/></clipPath></defs></svg>