<svg xmlns="http://www.w3.org/2000/svg" width="93" height="24" fill="none" viewBox="0 0 93 24"><g fill="#fff" clip-path="url(#a)"><path d="m2.133 9.112 3.132 6.11h3.623l3.076-6.114h1.542V8h-4.64v1.107h1.34l-2.24 4.45-2.269-4.449h1.628V8.001H.6v1.108zM27.487 8c-3.115 0-4.77 1.67-4.77 3.768 0 2.125 1.594 3.82 4.79 3.82 3.197 0 4.77-1.696 4.77-3.82C32.277 9.67 30.604 8 27.488 8m-.034 6.44c-1.137-.021-1.637-1.374-1.615-2.716.022-1.392.644-2.605 1.706-2.585 1.063.02 1.63 1.257 1.606 2.648-.022 1.311-.525 2.677-1.697 2.654m14.037-5.336V8h6.205v1.104H46.15v4.988h1.432a1.9 1.9 0 0 0 .833-.115c.267-.101.512-.261.72-.47.206-.21.37-.463.482-.745a2.4 2.4 0 0 0 .163-.892h1.023v3.34H41.49v-1.118h1.566V9.104zm20.055.007 3.132 6.11h3.623l3.076-6.114h1.541V8h-4.637v1.107h1.34l-2.24 4.45-2.27-4.449h1.628V8.001h-6.725V9.11zM86.9 8c-3.116 0-4.77 1.67-4.77 3.768 0 2.125 1.593 3.82 4.79 3.82s4.77-1.696 4.77-3.82C91.688 9.67 90.015 8 86.9 8m-.035 6.44c-1.137-.021-1.637-1.374-1.615-2.716.022-1.392.644-2.605 1.707-2.585s1.63 1.257 1.606 2.648c-.023 1.311-.527 2.677-1.698 2.654"/></g><defs><clipPath id="a"><path fill="#fff" d="M.6 8h92v7.588H.6z"/></clipPath></defs></svg>