<svg xmlns="http://www.w3.org/2000/svg" width="75" height="24" fill="none" viewBox="0 0 75 24"><mask id="a" width="75" height="21" x="0" y="2" maskUnits="userSpaceOnUse" style="mask-type:luminance"><path fill="#fff" d="M.225 2.4h74.4v19.84H.225z"/></mask><g mask="url(#a)"><path fill="#fff" d="M5.374 9.106c-1.776 0-2.646 1.563-2.646 3.652v5.232H.225V6.948h2.458v2.865h.043C3.252 8.051 4.298 6.63 5.912 6.63c1.135 0 1.614.396 1.614.396L6.396 9.3c0-.002-.36-.193-1.022-.193m30.252 1.516v7.367h-2.439v-6.47c0-1.858-.582-2.842-2.071-2.842-1.54 0-2.287 1.244-2.287 3.631v5.68h-2.415v-6.47c0-1.785-.576-2.84-2.05-2.84-1.681 0-2.329 1.473-2.329 3.63v5.68h-2.458V6.948h2.458v2.5h.022c.383-1.73 1.428-2.797 3.192-2.797 1.75 0 2.89.94 3.323 2.606.411-1.604 1.507-2.607 3.192-2.607 2.35 0 3.862 1.474 3.862 3.972M12.445 6.628c-2.262 0-3.743 1.062-4.418 2.98l2.082.758c.38-1.157 1.17-1.816 2.38-1.816 1.358 0 2.157.599 2.157 1.516 0 .94-.635 1.136-2.072 1.368-1.597.257-5.393.341-5.393 3.545 0 1.876 1.57 3.288 3.926 3.288 1.772 0 2.98-.724 3.538-2.072h.022v1.795h2.437v-6.793c0-2.971-1.496-4.57-4.66-4.57m2.264 6.164c0 2.316-1.146 3.803-2.976 3.803-1.295 0-2.071-.727-2.071-1.774 0-.982.798-1.665 2.33-1.945 1.567-.288 2.355-.643 2.717-1.495zM44.297 6.65c-1.865 0-3.096 1.024-3.624 2.564V6.948h-2.59V22.24h2.568v-6.515h.022c.571 1.667 1.76 2.585 3.624 2.585 2.955 0 5.069-2.435 5.069-5.874 0-3.415-2.114-5.786-5.07-5.786m-.637 9.61c-2.047 0-3.181-1.485-3.181-3.791s1.27-3.792 3.18-3.792 3.183 1.558 3.183 3.792-1.27 3.791-3.182 3.791m31.136 1.68v.07l-10.02.002v-.072a15.7 15.7 0 0 0 3.34-2.516h4.114zM72.314 4.89l-2.54-2.49H69.7s.043 4.643-4.221 8.865c-4.172 4.132-9.079 4.141-9.079 4.141v.072l2.587 2.535s4.835.048 9.107-4.142c4.256-4.176 4.22-8.981 4.22-8.981"/></g></svg>