<svg xmlns="http://www.w3.org/2000/svg" width="81" height="25" fill="none" viewBox="0 0 81 25"><path fill="#fff" fill-rule="evenodd" d="M18.178 18.634h.302v5.532h-.905c-5.888 0-9.776-3.354-9.776-8.83V12.64l2.395-.604A3.09 3.09 0 0 0 12.46 9.68a3.086 3.086 0 1 0-6.106-.635v12.064H.4V8.831q0-.555.07-1.106C1.026 3.37 4.83 0 9.44 0c4.202 0 7.735 2.8 8.748 6.597a8.68 8.68 0 0 1-.551 5.962 8.95 8.95 0 0 1-3.728 3.949c.56 1.743 1.937 2.126 4.269 2.126m11.858-9.377v2.275h-.372q-1.175 0-1.833.645t-.657 1.753v4.103H24.97V9.4h2.2v1.115q.992-1.257 2.49-1.257zm9.292 5.262h-6.69c.136.522.45.981.884 1.3a2.6 2.6 0 0 0 1.589.479c.477.006.95-.098 1.381-.302.385-.176.725-.437.992-.766l1.473 1.292a4.7 4.7 0 0 1-1.7 1.274 5.4 5.4 0 0 1-2.213.454 5.1 5.1 0 0 1-2.456-.596 4.4 4.4 0 0 1-1.72-1.65 4.65 4.65 0 0 1-.021-4.608 4.3 4.3 0 0 1 1.654-1.62 4.7 4.7 0 0 1 2.337-.588q1.943 0 3.238 1.296 1.295 1.295 1.298 3.246.005.396-.046.79m-3.103-2.907a2.27 2.27 0 0 0-2.8 0 2.37 2.37 0 0 0-.8 1.296h4.407a2.36 2.36 0 0 0-.81-1.301zm17.11-1.545q.88.878.882 2.34v5.626h-2.209v-4.958a1.76 1.76 0 0 0-.459-1.269 1.63 1.63 0 0 0-1.228-.476 1.82 1.82 0 0 0-1.315.491 1.7 1.7 0 0 0-.505 1.29v4.93h-2.2v-4.966a1.73 1.73 0 0 0-.467-1.264 1.67 1.67 0 0 0-1.245-.48 1.8 1.8 0 0 0-1.306.492 1.7 1.7 0 0 0-.505 1.285v4.93h-2.2V9.403h2.2v.893q.975-1.1 2.556-1.1a3.4 3.4 0 0 1 1.6.368c.458.238.843.598 1.112 1.039q1.067-1.408 2.944-1.407 1.465 0 2.346.871m11.261 3.654a4.32 4.32 0 0 1-1.33 3.224q-1.333 1.3-3.31 1.3t-3.312-1.297a4.564 4.564 0 0 1 0-6.45q1.335-1.3 3.313-1.3 1.975 0 3.309 1.3a4.33 4.33 0 0 1 1.33 3.223m-2.944 1.708a2.51 2.51 0 0 0 0-3.417 2.44 2.44 0 0 0-3.39 0 2.48 2.48 0 0 0 0 3.408 2.444 2.444 0 0 0 3.39 0zm6.8-4.013v3.59q0 1.11 1.19 1.109c.394-.014.78-.113 1.133-.29v2.052c-.5.259-1.056.386-1.619.372q-1.45 0-2.18-.773-.73-.772-.73-2.115v-3.945h-1.368V9.403h1.373v-1.44l2.2-.752v2.192h2.331v2.013zm11.902 3.103h-6.69c.137.522.449.981.884 1.3a2.6 2.6 0 0 0 1.587.479c.477.006.95-.098 1.381-.302.386-.175.726-.437.994-.766l1.472 1.292a4.7 4.7 0 0 1-1.7 1.274 5.35 5.35 0 0 1-2.213.454 5.06 5.06 0 0 1-2.456-.596 4.37 4.37 0 0 1-1.72-1.65 4.66 4.66 0 0 1-.021-4.608c.393-.68.965-1.24 1.654-1.62a4.7 4.7 0 0 1 2.336-.588q1.947 0 3.239 1.296 1.292 1.295 1.299 3.246.003.396-.046.79m-3.103-2.907a2.27 2.27 0 0 0-2.8 0 2.37 2.37 0 0 0-.802 1.296h4.406a2.37 2.37 0 0 0-.807-1.301z" clip-rule="evenodd"/></svg>