<svg xmlns="http://www.w3.org/2000/svg" width="86" height="25" fill="none" viewBox="0 0 86 25"><path fill="#fff" d="M15.346.09 1 6.748l3.575 13.63 2.727-.357-.76-8.58.894-.403L9 19.8l4.648-.536-.85-9.43.895-.403 1.698 9.61 4.693-.582L19.19 8.09l.894-.402 1.877 10.548 4.648-.581V2.905zm.358 20.647.223 1.341 10.682 1.788v-4.47zm21.005-2.77v1.832h2.28q0 .536-.268 1.073c-.18.312-.492.58-.805.76a3.2 3.2 0 0 1-1.296.267c-.491 0-1.028-.134-1.43-.402-.402-.313-.76-.715-.939-1.162-.223-.58-.357-1.251-.312-1.877 0-.626.089-1.251.357-1.877.179-.492.536-.894.939-1.162s.938-.402 1.43-.402c.268 0 .536.045.76.09.223.088.447.178.625.312.179.134.358.313.447.492.134.178.224.402.268.625h2.459c-.09-.536-.224-1.028-.492-1.475a4.3 4.3 0 0 0-1.028-1.162c-.447-.357-.939-.58-1.43-.76a5.9 5.9 0 0 0-1.743-.268c-.715 0-1.386.135-2.056.358a5.2 5.2 0 0 0-1.654 1.117c-.491.492-.849 1.118-1.117 1.788a7.1 7.1 0 0 0-.402 2.369c0 1.162.223 2.145.67 2.994.402.805 1.073 1.475 1.832 1.922a5.97 5.97 0 0 0 5.23.134 3.93 3.93 0 0 0 1.698-1.609c.402-.715.626-1.52.626-2.503v-1.43zm31.24 5.899v-10.95h7.51v2.011h-5.051v2.459h4.067v2.01h-4.067v2.459h5.05v2.01zm14.839-7.732c0-.402-.224-.715-.492-.983-.313-.224-.715-.358-1.251-.358-.313 0-.626.045-.894.134a1.2 1.2 0 0 0-.536.403.9.9 0 0 0-.18.58c0 .18.045.314.135.492.09.134.223.268.357.358l.537.268c.223.09.447.134.67.179l.983.223c.492.09.939.268 1.386.447.402.179.76.402 1.028.67q.402.403.67.939c.179.402.224.805.224 1.207 0 .625-.18 1.251-.492 1.743-.358.491-.894.894-1.475 1.162-.76.268-1.52.402-2.324.402a7.1 7.1 0 0 1-2.369-.402c-.625-.268-1.162-.67-1.564-1.252-.357-.536-.58-1.251-.58-2.055h2.368c0 .67.402 1.206 1.028 1.43.357.134.715.178 1.072.178.313 0 .67-.044.984-.178.268-.09.447-.224.625-.447.134-.179.224-.402.224-.67 0-.224-.09-.403-.224-.582a1.7 1.7 0 0 0-.58-.402c-.313-.134-.671-.223-.984-.313l-1.162-.268c-.938-.223-1.654-.58-2.235-1.073-.536-.491-.804-1.117-.804-1.966 0-.626.179-1.251.536-1.743.403-.536.894-.939 1.52-1.162.67-.313 1.43-.447 2.19-.447s1.475.134 2.19.447a3.66 3.66 0 0 1 1.43 1.162q.536.804.536 1.743zm-16.581 7.732h-2.458v-8.313h-.269l-2.458 8.358h-2.458l-2.413-8.358h-.313v8.358H53.38V12.916h4.156l2.1 7.375h.269l2.1-7.375h4.157v10.95zm-16.67 0h2.68l-3.664-10.95h-3.352l-3.71 10.95h2.682l.715-2.413h3.978zm-4.157-4.29 1.207-4.023h.446l1.207 4.022zM42.073.178h2.502v10.95h-2.502zM56.33 5.676c0 1.207-.224 2.235-.67 3.04-.403.804-1.073 1.474-1.878 1.92a5.52 5.52 0 0 1-5.274 0c-.804-.446-1.43-1.116-1.877-1.92-.447-.85-.67-1.878-.67-3.04q0-1.81.67-3.084c.447-.804 1.073-1.475 1.833-1.922a5.52 5.52 0 0 1 5.273 0c.805.447 1.43 1.118 1.877 1.922.447.85.67 1.877.716 3.084m-2.548 0c0-.67-.09-1.296-.313-1.877a2.2 2.2 0 0 0-.938-1.162 2.67 2.67 0 0 0-2.816 0c-.402.268-.76.67-.939 1.162a5.42 5.42 0 0 0 0 3.754c.18.492.492.894.94 1.162a2.67 2.67 0 0 0 2.815 0c.402-.268.715-.715.938-1.162.224-.58.313-1.207.313-1.877M36.844 7.33l1.296 3.843h2.726l-1.43-4.112h-1.922l-.134-.357c.357-.09.983-.179 1.564-.581a2.83 2.83 0 0 0 1.252-2.369c0-.67-.135-1.296-.492-1.832A3.3 3.3 0 0 0 38.364.67c-.671-.312-1.386-.447-2.146-.447h-4.38v10.95h2.458V7.33zm-.045-2.28a3 3 0 0 1-1.073.18h-1.43V2.19h1.43c.358 0 .715.045 1.073.179.268.09.492.313.626.536.178.268.223.536.223.85 0 .267-.045.58-.223.804a1.16 1.16 0 0 1-.626.491M56.553.18v2.01H60.8l.134.358c-.358.09-.983.18-1.52.537v8.045h2.459V2.19h2.86V.18z"/></svg>