<svg width="255" height="90" viewBox="0 0 255 90" fill="none" xmlns="http://www.w3.org/2000/svg">
<g clip-path="url(#clip0_5939_3228)">
<mask id="mask0_5939_3228" style="mask-type:luminance" maskUnits="userSpaceOnUse" x="0" y="-15" width="255" height="120">
<path d="M255 -15H0V105H255V-15Z" fill="white"/>
</mask>
<g mask="url(#mask0_5939_3228)">
<path d="M149.515 4.64164C149.402 5.34919 149.317 13.7265 149.317 23.3209C149.317 32.8869 149.26 40.8965 149.204 41.0945C149.118 41.2927 149.005 48.2265 148.892 56.4907C148.722 69.9624 148.75 71.5472 149.147 71.6889C149.6 71.8586 160.055 72.0002 160.225 71.8303C160.395 71.6889 161.217 21.1982 161.217 12.0851V3.39636H149.685L149.515 4.64164ZM30.5434 11.2076C29.0134 11.4058 27.5117 11.7172 27.2284 11.8869C26.9166 12.0285 26.4066 12.1699 26.0951 12.1699C24.8766 12.1699 19.1817 15.0002 16.8867 16.7265C15.3284 17.9152 12.4101 20.802 10.9084 22.6417C9.09506 24.8492 6.54506 29.4624 5.29839 32.6889C3.96673 36.1982 3.51339 37.6417 2.74839 40.6134C0.935064 47.6889 0.340063 52.5285 0.14173 62.2644C0.0283962 67.4152 0.0567295 69.0002 0.340063 69.3397C0.680063 69.7361 1.33173 70.0755 3.6834 71.0944C4.22173 71.3209 5.18507 71.7454 5.80839 72.0002C7.2534 72.651 8.69839 73.2737 9.77507 73.6982C10.2567 73.8964 11.1067 74.2644 11.7017 74.5189C12.2684 74.7737 13.2034 75.1699 13.7417 75.3964C14.3084 75.651 15.1867 76.0189 15.7251 76.2737C16.2634 76.5002 17.1417 76.8682 17.6517 77.0944C18.8701 77.6323 20.4567 78.3114 21.5901 78.8209C23.5451 79.6699 25.3301 79.8114 28.305 79.3869C29.8918 79.1323 31.4784 78.8209 31.9035 78.6793C32.3001 78.5096 33.0934 78.3964 33.6885 78.3964C35.1334 78.3964 35.7851 77.6606 35.8416 75.9058C35.8984 75.1699 36.0118 71.9717 36.0966 68.7737C36.2951 62.802 36.8334 57.1134 37.5701 53.6323C37.7968 52.5285 37.9667 51.3964 37.9667 51.1134C37.9667 50.802 38.1651 49.8682 38.4201 48.9907C38.6751 48.1134 39.0718 46.6982 39.2985 45.8492C40.4601 41.7172 42.7551 36.8775 44.8517 34.1038C48.5068 29.2927 53.2101 26.4624 59.3584 25.3586C64.6851 24.3964 69.0201 25.1323 73.1001 27.6793C74.6584 28.6699 78.2001 32.0944 78.8518 33.2831C79.9851 35.3492 81.9966 39.5662 82.1951 40.302C82.3084 40.7831 82.5351 41.5472 82.6768 42.0285C83.4984 44.5472 83.8667 45.8492 83.8667 46.302C83.8667 46.6134 84.0366 47.7172 84.2634 48.8209C85.0284 52.5002 85.5666 57.8492 85.5951 62.2644C85.6517 66.8209 85.8216 67.8114 86.5866 68.1227C86.8416 68.2076 88.0601 68.0379 89.2785 67.7548C91.2051 67.302 91.5735 67.1323 91.7151 66.5379C91.9984 65.4624 91.545 53.9152 91.0635 49.953C90.2985 43.4434 89.3634 39.3397 87.4933 34.2454C86.3601 31.2454 83.9233 27.3682 81.5434 24.8775C77.8601 21.0002 74.1484 19.1038 66.0167 16.8964C65.1666 16.6417 63.75 16.2737 62.9001 16.0472C62.0501 15.7927 60.5201 15.3964 59.5001 15.1417C58.4801 14.8869 57.0351 14.4907 56.2416 14.2927C55.4766 14.0662 54.06 13.6982 53.1251 13.4717C52.1901 13.2454 50.6601 12.8775 49.725 12.651C42.6418 10.8682 36.4367 10.4152 30.5434 11.2076ZM204.793 21.651C204.708 21.7361 204.963 22.6699 205.332 23.7172C205.728 24.7644 206.125 25.9813 206.267 26.4624C206.38 26.9152 206.663 27.7644 206.862 28.302C207.457 30.0002 207.882 31.2454 208.307 32.4058C209.043 34.4152 209.44 35.4907 209.667 36.3682C209.808 36.8209 210.177 37.9247 210.517 38.7737C210.857 39.6227 211.225 40.7265 211.367 41.2076C211.48 41.7172 211.678 42.2548 211.792 42.453C211.905 42.651 212.103 43.1889 212.245 43.6982C212.358 44.1793 213.123 46.4152 213.917 48.6793C214.71 50.9434 215.475 53.151 215.616 53.6323C215.758 54.0851 216.326 55.7548 216.891 57.3114C217.459 58.8682 218.025 60.5379 218.139 61.0189C218.28 61.5285 218.479 62.0662 218.591 62.2644C218.704 62.4624 218.904 63.0002 219.017 63.5096C219.159 63.9907 219.527 65.0944 219.838 65.9434C220.179 66.7927 220.434 67.6982 220.434 67.9813C220.434 68.2644 218.591 72.1134 216.326 76.5851C214.058 81.0285 212.217 84.9058 212.217 85.1889C212.217 85.6134 212.5 85.7548 213.435 85.8682C215.503 86.1227 219.924 86.4341 221.822 86.4341L223.635 86.4624L227.546 78.8209C229.669 74.604 232.929 68.2361 234.741 64.6699C236.554 61.0755 239.644 55.104 241.541 51.3682C243.469 47.6323 246.131 42.3964 247.491 39.7644C248.824 37.104 250.069 34.6982 250.241 34.3869C250.41 34.0755 250.665 33.6227 250.779 33.3964L252.591 29.7737C253.498 27.9341 254.349 26.6038 254.604 26.6038C254.831 26.6038 255 26.4341 255 26.2361C255 25.9247 253.839 25.7548 250.269 25.4434C247.633 25.2454 244.744 25.0755 243.836 25.0472H242.164L239.672 29.8586C238.311 32.4907 236.102 36.821 234.741 39.4813C232.136 44.6323 231.909 45.0002 231.484 45.7644C231.313 46.0472 231.116 46.4717 231.03 46.6982C230.944 46.9247 230.747 47.3492 230.606 47.6323C230.434 47.9152 229.783 49.1889 229.131 50.4624C228.48 51.7361 227.801 52.953 227.601 53.151C227.119 53.6606 226.667 53.3209 226.667 52.5002C226.667 52.1323 226.496 51.3964 226.271 50.8869C226.071 50.3775 225.675 49.2454 225.42 48.3964C225.193 47.5472 224.599 45.6793 224.173 44.2927C223.721 42.8775 222.926 40.4152 222.446 38.7737C221.936 37.1323 221.34 35.3775 221.113 34.8682C220.886 34.3586 220.716 33.7076 220.716 33.3964C220.716 33.0851 220.547 32.4341 220.32 31.9247C220.093 31.4152 219.499 29.6606 219.017 28.0189C217.969 24.5379 217.316 22.8682 216.891 22.5851C216.75 22.4717 215.644 22.3586 214.483 22.3586C213.322 22.3586 211.027 22.1606 209.383 21.9341C206.153 21.4813 205.02 21.4247 204.793 21.651ZM121.692 22.3303C116.365 23.0096 110.783 25.7265 107.355 29.3492C103.813 33.0568 102.453 35.7454 101.405 41.0379C100.385 46.104 101.178 51.7076 103.7 57.0002C105.372 60.5096 109.253 64.6417 112.342 66.2265C112.965 66.5662 113.673 66.9341 113.9 67.0472C114.523 67.4152 116.365 68.0662 118.178 68.604C120.388 69.2548 128.208 69.2265 130.843 68.604C137.445 66.9907 142.687 63.3964 145.747 58.3303C146.823 56.5755 146.852 55.8964 145.832 55.6134C144.982 55.3869 141.185 53.8586 138.153 52.5285L137.048 52.0472L135.037 54.1134C131.977 57.2265 128.803 58.6699 124.95 58.6417C120.473 58.6417 116.875 56.802 114.693 53.4341C113.135 50.9717 112.682 49.302 112.682 45.7361C112.653 41.3492 113.645 38.6606 116.309 35.8586C119.085 32.9434 124.44 31.7831 128.917 33.0851C131.552 33.8492 132.543 34.4434 134.187 36.1417C134.98 36.9624 135.802 37.6417 136 37.6417C136.17 37.6417 138.295 36.453 140.703 35.0379C143.65 33.2548 145.067 32.2361 145.067 31.9247C145.067 31.2737 141.043 27.1699 139.258 25.9813C137.36 24.7361 134.98 23.604 132.827 22.9247C130.815 22.2737 124.695 21.9624 121.692 22.3303Z" fill="white"/>
<path d="M180.285 24.7642C174.42 25.9246 169.802 29.4342 167.138 34.8114C166.685 35.7172 166.317 36.7077 166.317 36.9907C166.317 37.5001 167.138 38.0097 169.292 38.8869C170.283 39.3114 171.728 39.9059 173.117 40.5284C174.817 41.2642 175.695 41.6039 175.95 41.6039C176.092 41.6039 176.488 41.0097 176.857 40.2738C177.678 38.6039 179.69 36.5379 181.277 35.717C182.24 35.2077 182.948 35.0945 184.903 35.0945C187.623 35.0945 189.182 35.6322 190.627 37.0473C191.647 38.0662 192.752 40.8963 192.61 42.1983L192.525 43.1604L187.992 43.4718C182.07 43.868 179.152 44.4624 175.1 46.1039C171.332 47.6039 168.584 49.9529 166.997 52.9529C166.203 54.4246 166.203 54.5945 166.203 58.5849C166.203 62.6322 166.232 62.7172 167.138 64.5849C169.32 69.0849 173.57 71.3776 179.917 71.3776C184.932 71.4059 189.38 69.7925 192.667 66.7925C194.593 65.0379 194.848 64.9529 195.33 65.8587C195.84 66.8493 197.908 68.8304 199.042 69.4246C200.288 70.1039 202.81 70.7549 204.113 70.7549C206.437 70.7266 210.205 69.4529 212.16 67.9814C213.265 67.1887 213.265 66.8493 212.245 64.2455C211.055 61.2172 210.743 60.4246 210.602 59.7738C210.403 58.8963 209.808 58.6983 208.958 59.2642C207.995 59.8869 206.748 59.8304 206.097 59.1228C205.077 57.9907 204.822 56.1511 204.567 47.9718C204.312 39.17 204.085 37.7832 202.47 34.4152C200.487 30.3397 197.002 27.2266 192.525 25.5849C189.323 24.4246 183.827 24.0567 180.285 24.7642ZM192.752 52.4152C193.602 53.0662 192.468 56.0945 190.655 58.019C188.218 60.5662 185.98 61.5567 182.608 61.5567C179.633 61.5567 178.812 61.1604 178.103 59.2925C177.537 57.8208 177.537 57.0849 178.103 55.9814C179.322 53.6322 181.702 52.9246 190.542 52.2455C191.165 52.2172 191.817 52.1604 191.987 52.1322C192.128 52.1039 192.497 52.2455 192.752 52.4152ZM60.3501 27.7642C59.8119 27.9059 58.7351 28.1322 57.9418 28.2738C52.3035 29.3208 47.2035 33.8208 44.115 40.4718C42.8117 43.2738 41.7634 46.1039 41.3668 47.8304C41.2534 48.368 41.0267 49.3869 40.8568 50.0945C39.5535 55.4435 38.8451 61.8397 38.6184 69.7642C38.4201 77.8021 38.3068 77.4907 41.1401 76.9814C44.5401 76.3587 45.4468 76.019 45.6452 75.2832C45.7584 74.8869 45.8434 73.0473 45.8717 71.1794C45.9568 59.1511 47.9685 47.519 50.6884 42.9907C51.0285 42.4529 51.3969 41.7172 51.5668 41.3493C51.9917 40.4152 55.2219 37.2738 56.3835 36.6794C59.9818 34.868 63.8634 34.8397 67.7169 36.5945C68.4251 36.9059 69.7569 37.9529 70.7201 38.8869C74.8851 43.0756 76.8684 50.4342 77.2084 63.1417C77.2652 66.1983 77.4351 68.9152 77.5202 69.17C77.8035 69.8776 78.5402 69.9342 80.7501 69.368C82.2234 69.0001 82.9035 68.6887 83.0451 68.3208C83.1302 68.0097 83.1868 65.6887 83.1017 63.1134C82.8184 50.5756 80.6085 40.8114 76.6701 34.7266C75.6501 33.17 73.0434 30.4814 71.9385 29.8587C68.3968 27.8493 63.4952 26.9718 60.3501 27.7642Z" fill="white"/>
<path d="M61.0584 37.7545C60.9167 37.8111 60.0101 38.0939 59.0751 38.377C57.6583 38.7732 57.0634 39.1694 55.5334 40.726C54.5134 41.7449 53.3801 43.2449 53.0117 44.0091C52.6434 44.8015 52.1901 45.7639 51.9634 46.1884C51.7367 46.5846 51.5668 47.1224 51.5668 47.377C51.5668 47.6035 51.3966 48.226 51.1701 48.7356C49.8101 51.9619 48.5916 61.7828 48.3934 71.3487C48.3084 75.679 48.2518 75.6507 53.6916 74.5752C54.7967 74.3487 56.7516 73.9808 58.0834 73.726C59.415 73.4714 61.3984 73.1035 62.475 72.877C63.5801 72.6507 65.535 72.2828 66.8668 72.028C68.1984 71.7732 70.1818 71.377 71.2584 71.1507C72.3634 70.9242 73.4683 70.7545 73.7518 70.7545C74.6584 70.7545 74.8284 69.5091 74.6584 63.5656C74.2618 49.6694 71.9668 42.1977 67.1501 39.226C65.7051 38.3204 61.9933 37.4431 61.0584 37.7545Z" fill="white"/>
</g>
</g>
<defs>
<clipPath id="clip0_5939_3228">
<rect width="255" height="90" fill="white"/>
</clipPath>
</defs>
</svg>
